<svg width="512" height="512" viewBox="0 0 512 512" xmlns="http://www.w3.org/2000/svg">
  <!-- Background -->
  <defs>
    <linearGradient id="bgGradient" x1="0%" y1="0%" x2="100%" y2="100%">
      <stop offset="0%" style="stop-color:#1e3a8a"/>
      <stop offset="100%" style="stop-color:#1e40af"/>
    </linearGradient>
  </defs>
  
  <rect width="512" height="512" fill="url(#bgGradient)" rx="80"/>
  
  <!-- Boxing Ring -->
  <rect x="80" y="160" width="352" height="240" fill="none" stroke="white" stroke-width="8" rx="20"/>
  <rect x="100" y="180" width="312" height="200" fill="none" stroke="rgba(255,255,255,0.5)" stroke-width="4" rx="15"/>
  
  <!-- Center Line -->
  <line x1="256" y1="180" x2="256" y2="380" stroke="white" stroke-width="4" opacity="0.7"/>
  
  <!-- Score Numbers -->
  <text x="180" y="280" font-family="Arial Black" font-size="60" font-weight="bold" fill="white" text-anchor="middle">10</text>
  <text x="332" y="280" font-family="Arial Black" font-size="60" font-weight="bold" fill="white" text-anchor="middle">9</text>
  
  <!-- Crown Symbol -->
  <path d="M256 80 L236 120 L216 100 L196 120 L176 100 L156 120 L146 140 L366 140 L356 120 L336 100 L316 120 L296 100 L276 120 Z" fill="#ffd700" stroke="#ffb700" stroke-width="2"/>
  <circle cx="176" cy="110" r="8" fill="#ff6b6b"/>
  <circle cx="216" cy="90" r="8" fill="#4ecdc4"/>
  <circle cx="256" cy="70" r="10" fill="#ffe66d"/>
  <circle cx="296" cy="90" r="8" fill="#4ecdc4"/>
  <circle cx="336" cy="110" r="8" fill="#ff6b6b"/>
  
  <!-- App Title -->
  <text x="256" y="460" font-family="Arial" font-size="36" font-weight="bold" fill="white" text-anchor="middle">CrowdScore</text>
</svg>



